<svg width="1280" height="720" xmlns="http://www.w3.org/2000/svg" xmlns:xlink="http://www.w3.org/1999/xlink" overflow="hidden"><defs><clipPath id="clip0"><rect x="0" y="0" width="1280" height="720"/></clipPath></defs><g clip-path="url(#clip0)"><rect x="0" y="0" width="1280" height="720" fill="#FFFFFF"/><text fill="#002060" font-family="Calibri,Calibri_MSFontService,sans-serif" font-weight="400" font-size="37" transform="translate(97.6 118)">Design Process<tspan fill="#ED7D31" font-weight="700" font-size="19" x="0" y="36">Steps</tspan></text><path d="M65.5001 320.5 249.5 320.5 295.5 366.5 249.5 412.5 65.5001 412.5Z" stroke="#FFFFFF" stroke-width="1.33333" stroke-miterlimit="8" fill="#ED7D31" fill-rule="evenodd"/><text fill="#FFFFFF" font-family="Calibri,Calibri_MSFontService,sans-serif" font-weight="400" font-size="16" transform="translate(82.552 362)">Contextual Enquiry (one on <tspan font-size="16" x="38.3867" y="18">one interviews)</tspan></text><path d="M249.5 320.5 434.5 320.5 480.5 366.5 434.5 412.5 249.5 412.5 295.5 366.5Z" stroke="#FFFFFF" stroke-width="1.33333" stroke-miterlimit="8" fill="#A5A5A5" fill-rule="evenodd"/><text fill="#FFFFFF" font-family="Calibri,Calibri_MSFontService,sans-serif" font-weight="400" font-size="16" transform="translate(321.024 362)">Extracting the <tspan font-size="16" x="20.36" y="18">insights</tspan></text><path d="M434.5 320.5 618.5 320.5 664.5 366.5 618.5 412.5 434.5 412.5 480.5 366.5Z" stroke="#FFFFFF" stroke-width="1.33333" stroke-miterlimit="8" fill="#FFC000" fill-rule="evenodd"/><text fill="#FFFFFF" font-family="Calibri,Calibri_MSFontService,sans-serif" font-weight="400" font-size="16" transform="translate(500.483 353)">Pain points and <tspan font-size="16" x="9.10001" y="18">user journey </tspan><tspan font-size="16" x="21.46" y="35">mapping</tspan></text><path d="M618.5 320.5 802.5 320.5 848.5 366.5 802.5 412.5 618.5 412.5 664.5 366.5Z" stroke="#FFFFFF" stroke-width="1.33333" stroke-miterlimit="8" fill="#5B9BD5" fill-rule="evenodd"/><text fill="#FFFFFF" font-family="Calibri,Calibri_MSFontService,sans-serif" font-weight="400" font-size="16" transform="translate(674.198 362)">Defining the scope <tspan font-size="16" x="11.7733" y="18">for redesigning</tspan></text><path d="M802.5 320.5 986.5 320.5 1032.5 366.5 986.5 412.5 802.5 412.5 848.5 366.5Z" stroke="#FFFFFF" stroke-width="1.33333" stroke-miterlimit="8" fill="#70AD47" fill-rule="evenodd"/><text fill="#FFFFFF" font-family="Calibri,Calibri_MSFontService,sans-serif" font-weight="400" font-size="16" transform="translate(859.176 362)">Brainstorming and <tspan font-size="16" x="20.5" y="18">wireframing</tspan></text><path d="M986.5 320.5 1171.5 320.5 1217.5 366.5 1171.5 412.5 986.5 412.5 1032.5 366.5Z" stroke="#FFFFFF" stroke-width="1.33333" stroke-miterlimit="8" fill="#ED7D31" fill-rule="evenodd"/><text fill="#FFFFFF" font-family="Calibri,Calibri_MSFontService,sans-serif" font-weight="400" font-size="16" transform="translate(1064.17 362)">High fidelity <tspan font-size="16" x="3.51331" y="18">prototypes</tspan></text></g></svg>